PathFileType	4	(X/Y/Z)	Run_500 02
DataRate	CameraRate	NumFrames	NumMarkers	Units	OrigDataRate	OrigDataStartFrame	OrigNumFrames
120	120	8	42	mm	120	567	128
Frame#	Time	LASI			RASI			LPSI			RPSI			RTH1			RTH2			RTH3			LTH1			LTH2			LTH3			RTB1			RTB2			RTB3			LTB1			LTB2			LTB3			RCAL			RTOE			RMT5			LCAL			LTOE			LMT5			LACR			RACR			CLAV			C7			RUA1			RUA2			RUA3			RLEL			RMEL			LUA1			LUA2			LUA3			LLEL			LMEL			RFAsuperior			RFAradius			RFAulna			LFAsuperior			LFAradius			LFAulna		
		X1	Y1	Z1	X2	Y2	Z2	X3	Y3	Z3	X4	Y4	Z4	X5	Y5	Z5	X6	Y6	Z6	X7	Y7	Z7	X8	Y8	Z8	X9	Y9	Z9	X10	Y10	Z10	X11	Y11	Z11	X12	Y12	Z12	X13	Y13	Z13	X14	Y14	Z14	X15	Y15	Z15	X16	Y16	Z16	X17	Y17	Z17	X18	Y18	Z18	X19	Y19	Z19	X20	Y20	Z20	X21	Y21	Z21	X22	Y22	Z22	X23	Y23	Z23	X24	Y24	Z24	X25	Y25	Z25	X26	Y26	Z26	X27	Y27	Z27	X28	Y28	Z28	X29	Y29	Z29	X30	Y30	Z30	X31	Y31	Z31	X32	Y32	Z32	X33	Y33	Z33	X34	Y34	Z34	X35	Y35	Z35	X36	Y36	Z36	X37	Y37	Z37	X38	Y38	Z38	X39	Y39	Z39	X40	Y40	Z40	X41	Y41	Z41	X42	Y42	Z42	

567	  4.725000	817.941890	974.296423	-519.723227	831.500133	996.240968	-268.687379	657.636070	1014.341816	-415.854008	662.915116	1016.123573	-326.736000	873.423952	849.102855	-221.399734	996.064724	800.168408	-252.743796	1012.499012	668.444824	-238.434494	737.018130	838.732553	-552.497054	751.348443	717.931348	-541.707160	631.858654	611.244780	-528.508101	998.251387	502.045350	-299.574128	920.727431	503.395064	-244.900238	830.695432	425.787403	-303.618734	567.493193	372.736723	-461.325149	466.941976	316.966964	-511.326388	433.507084	237.255252	-439.624537	655.066714	443.691717	-307.096150	772.455678	257.304396	-294.393249	739.617172	283.058687	-205.362870	264.906164	200.920078	-446.765347	436.534114	 69.983038	-425.908240	398.689760	 65.034527	-511.418906	833.885709	1435.456696	-561.812562	784.849973	1456.352467	-198.793768	903.866671	1404.703798	-334.637109	776.959392	1490.411690	-387.287111	717.973115	1381.656547	-133.471257	709.877385	1312.311294	-120.496123	606.568926	1331.768801	-120.778162	591.360756	1253.285135	-63.988104	559.774219	1234.332689	-143.949908	817.990809	1368.060131	-625.492128	763.277981	1292.623787	-630.061898	823.137909	1286.436814	-677.673101	824.924011	1193.424923	-742.576097	796.738651	1128.548211	-687.888407	653.340526	1198.351231	-48.969239	780.072259	1086.408631	-69.975498	720.898212	1049.818200	-67.357401	892.680859	1212.745435	-719.969272	1026.231682	1227.411300	-605.141316	1043.247140	1175.523565	-644.861627	
568	  4.733333	822.283568	978.250591	-519.279423	832.521401	1003.348870	-271.646795	660.895901	1020.107370	-417.544498	665.523077	1022.206787	-328.366317	877.224107	860.937667	-222.126543	998.936680	811.892554	-251.609143	1016.987027	678.908417	-239.314896	735.284225	843.727960	-552.702160	744.105607	722.529157	-541.596467	619.795448	622.955844	-526.838991	1019.235759	506.473739	-299.295409	942.126777	496.952482	-244.792641	863.991326	407.918186	-303.632689	547.845783	386.074637	-461.465407	445.971132	332.292249	-511.903985	413.019832	250.406236	-441.718681	686.774401	401.792815	-309.534045	829.301083	234.131898	-293.796020	792.607627	255.803609	-205.453463	247.029012	224.025250	-446.270905	401.324022	 72.859831	-427.084637	361.420899	 69.425075	-512.100228	837.161943	1441.188385	-558.092524	781.133967	1461.232721	-197.148429	901.727703	1410.943307	-330.457526	776.587143	1494.926267	-385.012698	713.500172	1388.893398	-132.410261	704.706175	1319.792815	-118.922633	601.544460	1340.495285	-121.360909	584.580702	1263.182458	-64.422527	554.248615	1243.418523	-144.603169	822.821226	1374.233064	-622.660521	767.416462	1299.946376	-630.251393	829.719280	1292.308506	-674.829576	831.665606	1199.608074	-739.669580	799.064516	1134.862535	-686.082127	645.889476	1208.911066	-47.024520	773.770233	1096.809755	-64.040672	714.874280	1059.872611	-60.428109	898.366917	1217.983679	-714.176554	1028.288709	1230.762327	-595.331274	1045.358042	1178.718795	-634.612322	
569	  4.741667	826.280287	982.187595	-518.387169	833.268590	1010.255239	-273.746979	664.056628	1025.948117	-419.080082	667.731451	1027.823127	-330.265576	878.492767	870.852370	-222.415930	999.651319	821.139335	-249.478158	1018.427096	686.747760	-240.424054	733.677807	849.348165	-553.019897	737.858461	727.467790	-541.953875	610.726656	633.539470	-525.963360	1038.288710	509.947614	-298.432322	962.957786	490.107445	-244.236383	898.249008	391.131479	-303.682822	532.145569	398.098352	-462.162383	428.504056	346.757623	-512.268855	395.110451	263.583079	-443.100600	722.423938	360.400067	-312.138533	887.440843	215.426758	-293.074740	846.699071	232.006065	-205.401586	233.825262	249.320523	-444.327757	366.803636	 79.033468	-427.441538	323.582879	 77.084050	-510.952781	839.986440	1446.485858	-554.433071	778.003191	1465.416546	-195.677583	900.150478	1416.110301	-326.506256	776.447385	1498.981730	-382.930584	709.821094	1395.223877	-131.290384	700.436079	1326.328917	-117.229240	597.475366	1348.062077	-121.611568	578.911951	1271.817002	-64.538468	550.048490	1251.134429	-144.850533	827.120098	1380.173036	-619.908204	770.975496	1307.251793	-630.487719	835.247665	1297.999147	-672.111729	837.309177	1205.625082	-737.201353	800.705761	1141.116963	-685.110334	639.671697	1218.280921	-44.904897	768.624823	1106.089325	-58.073150	710.070125	1068.869544	-53.363984	902.944037	1222.950746	-708.992217	1029.212456	1233.198848	-586.037110	1046.253445	1181.086750	-625.253782	
570	  4.750000	829.644071	985.869043	-516.837424	833.807812	1016.471221	-274.860025	667.044282	1031.693373	-420.740303	669.611914	1033.083459	-332.213450	877.421430	877.673537	-221.996920	998.568279	827.647427	-246.473192	1017.459764	691.723852	-241.618421	732.792404	854.985580	-553.363927	733.191060	732.258934	-542.630921	604.745861	642.046524	-526.003833	1055.132740	512.097128	-296.975765	982.745937	482.765789	-243.166144	932.069827	375.723976	-303.705632	519.692503	407.916180	-463.069037	413.894515	359.992283	-512.294185	378.533673	277.101641	-443.358639	761.007325	320.223110	-314.513091	945.312807	201.665763	-292.524168	901.060820	212.016384	-205.233725	223.822119	276.249407	-441.725210	332.652321	 89.620203	-425.825816	285.567584	 89.258646	-507.141912	842.672185	1451.255699	-551.019656	775.469507	1468.754370	-194.441123	899.301435	1420.330511	-322.706008	776.583510	1502.538798	-381.078512	706.970155	1400.508774	-130.062121	697.122714	1331.803970	-115.322624	594.348446	1354.349371	-121.407329	574.378561	1279.037032	-64.195344	546.972465	1257.382094	-144.531801	831.047035	1385.753969	-617.294051	774.008620	1314.456430	-630.739669	839.769523	1303.305544	-669.533499	841.826833	1211.239154	-735.055984	801.546032	1147.201787	-684.704257	634.840229	1226.376269	-42.492405	764.798088	1114.245597	-51.740059	706.530299	1076.716573	-46.376427	906.495569	1227.432545	-704.558470	1029.041437	1234.563124	-577.358345	1045.970925	1182.375952	-616.642227	
571	  4.758333	832.222302	989.411735	-514.637952	834.115452	1021.515983	-275.114310	669.610243	1037.194039	-422.679628	671.130354	1038.238192	-334.090194	874.716231	880.881831	-220.881435	996.364427	831.409393	-243.242374	1014.938634	693.780309	-242.481649	732.940426	859.922695	-553.634561	730.820852	736.409943	-543.311913	601.876701	647.886546	-526.807781	1069.409235	512.502772	-294.865527	1000.854194	474.481895	-241.530170	964.411054	361.506350	-303.426533	509.730014	415.522192	-463.644210	401.547082	372.220884	-511.803482	362.448594	291.680820	-442.305366	801.430627	282.041843	-316.204649	1001.072336	192.595056	-292.445606	954.646960	195.753447	-205.177586	214.959928	304.245734	-439.622416	299.222283	105.418200	-421.211221	249.075423	106.585926	-500.488143	845.438610	1455.421959	-547.934169	773.502414	1471.192234	-193.324338	899.125993	1423.788621	-319.021690	777.033865	1505.616273	-379.365943	704.936391	1404.627547	-128.672134	694.788705	1336.098333	-113.196891	592.128713	1359.245517	-120.641370	570.997283	1284.739838	-63.297538	544.886419	1262.087688	-143.538216	834.657490	1390.862053	-614.818956	776.619961	1321.402777	-630.886988	843.380770	1308.100084	-667.169049	845.126087	1216.304458	-733.129699	801.279954	1153.019735	-684.536478	631.423880	1233.079945	-39.703489	762.384833	1121.272249	-44.881407	704.300739	1083.345552	-39.597288	909.040742	1231.237190	-700.973117	1027.784698	1234.696868	-569.410442	1044.463710	1182.360570	-608.694446	
572	  4.766667	834.021401	993.017532	-512.132247	834.060416	1025.183679	-274.719721	671.548657	1042.328798	-424.836483	672.188266	1043.368617	-335.914271	871.191626	880.882409	-219.307500	993.785614	832.538631	-240.631855	1011.512352	693.000674	-242.623727	734.120714	863.632630	-553.721605	731.252119	739.530830	-543.541799	602.046789	650.943256	-527.995241	1080.826921	510.764351	-292.115229	1016.674346	464.761333	-239.427212	994.641609	348.065504	-302.532152	501.743703	421.650963	-463.427790	391.176649	384.097795	-510.711388	346.753565	308.143939	-440.056712	842.536635	246.799632	-316.880179	1053.010044	187.206634	-292.991009	1006.212093	182.673539	-205.472766	205.466107	332.965028	-438.996137	267.665529	126.803599	-413.252936	216.383119	128.754083	-491.516233	848.304109	1458.929526	-545.136010	772.095696	1472.795176	-192.123943	899.398065	1426.572206	-315.516767	777.837030	1508.284849	-377.641418	703.679142	1407.537460	-127.085647	693.430538	1339.130522	-110.887827	590.771058	1362.675474	-119.270630	568.780977	1288.871166	-61.781219	543.762989	1265.197148	-141.808634	837.908139	1395.389317	-612.446358	778.876337	1327.884880	-630.750422	846.163834	1312.356739	-665.092216	847.093578	1220.726561	-731.366098	799.638615	1158.477742	-684.343811	629.323851	1238.243579	-36.487659	761.379552	1127.121024	-37.572012	703.416034	1088.724000	-33.025187	910.531041	1234.166135	-698.188483	1025.455121	1233.472834	-562.331645	1041.639990	1180.875428	-601.483688	
573	  4.775000	835.193069	996.733441	-509.821803	833.495731	1027.598543	-273.782219	672.862087	1046.979976	-426.983395	672.749054	1048.204069	-337.739209	867.472264	878.791012	-217.556897	991.326750	831.123205	-239.173170	1007.300593	689.527052	-241.990077	736.177994	865.940529	-553.547575	734.467939	741.420299	-542.920634	605.111582	651.501722	-529.156356	1089.276838	506.713417	-289.025276	1029.899852	453.512843	-237.171781	1022.318353	335.196489	-300.958003	495.560314	427.292169	-462.240478	382.861057	396.363527	-509.116377	332.076832	327.001925	-437.033264	883.001810	215.557475	-316.457974	1099.846042	184.150378	-294.087382	1054.451916	172.051573	-206.225179	194.808413	362.365859	-440.201294	239.485846	153.572141	-402.590968	189.148344	154.722955	-481.145878	851.130010	1461.751927	-542.500612	771.292560	1473.694840	-190.672334	899.832364	1428.644881	-312.336532	778.993860	1510.616376	-375.764572	703.165048	1409.298365	-125.285205	693.033427	1340.911110	-108.409132	590.246804	1364.636473	-117.332397	567.751678	1291.448159	-59.588710	543.650043	1266.712304	-139.313898	840.698439	1399.247675	-610.127766	780.723844	1333.715575	-630.165926	848.120569	1316.106664	-663.292402	847.633824	1224.432828	-729.730255	796.552791	1163.500781	-683.994147	628.414145	1241.770812	-32.792190	761.727414	1131.729927	-30.021270	703.894425	1092.856864	-26.535579	910.873724	1236.025491	-695.969444	1022.106040	1230.797091	-556.245858	1037.422947	1177.824970	-595.200232	
574	  4.783333	835.996604	1000.392578	-508.067859	832.387587	1029.062290	-272.266705	673.766543	1050.994456	-428.862659	672.911031	1052.218653	-339.538246	863.953528	875.822531	-215.808482	989.018195	827.172981	-238.787120	1001.944839	683.531534	-240.921710	738.964969	866.983129	-553.129326	739.860003	742.107171	-541.365159	610.815226	650.062992	-530.040813	1094.842041	500.623867	-286.236729	1040.692497	441.326658	-235.177813	1046.924501	323.153557	-299.055558	491.279920	433.149595	-460.214777	376.912949	409.496040	-507.246869	319.481414	348.128484	-433.837524	921.232186	189.244732	-315.093701	1140.735414	182.264070	-295.541704	1098.122375	163.345219	-207.423133	184.121759	392.579585	-442.887087	215.838686	184.827517	-390.708428	167.600134	183.388236	-470.360303	853.734174	1463.882604	-539.896055	771.145209	1473.997292	-188.901452	900.205005	1429.925438	-309.614147	780.418525	1512.612771	-373.657528	703.384184	1410.030004	-123.250311	693.580731	1341.556285	-105.710656	590.555515	1365.197092	-114.904793	567.941471	1292.570701	-56.659187	544.608836	1266.708841	-136.042213	842.898221	1402.379174	-607.823272	781.966461	1338.775709	-629.048890	849.148659	1319.340185	-661.648223	846.692110	1227.360762	-728.165388	792.148624	1168.037664	-683.451932	628.657855	1243.705963	-28.548241	763.394016	1135.077270	-22.437187	705.742752	1095.782666	-19.948149	909.967419	1236.672918	-694.001467	1017.842859	1226.587691	-551.215485	1031.798033	1173.166079	-590.018911	
